<svg width="18" height="18" viewBox="0 0 18 18" fill="none" xmlns="http://www.w3.org/2000/svg">
<path d="M9 0C6.61305 0 4.32387 0.948212 2.63604 2.63604C0.948212 4.32387 0 6.61305 0 9C0 11.3869 0.948212 13.6761 2.63604 15.364C4.32387 17.0518 6.61305 18 9 18C11.3869 18 13.6761 17.0518 15.364 15.364C17.0518 13.6761 18 11.3869 18 9C18 6.61305 17.0518 4.32387 15.364 2.63604C13.6761 0.948212 11.3869 0 9 0ZM12.9375 8.4375C13.0867 8.4375 13.2298 8.49676 13.3352 8.60225C13.4407 8.70774 13.5 8.85082 13.5 9C13.5 9.14918 13.4407 9.29226 13.3352 9.39775C13.2298 9.50324 13.0867 9.5625 12.9375 9.5625H6.42037L8.83575 11.9767C8.88805 12.029 8.92953 12.0911 8.95784 12.1595C8.98614 12.2278 9.00071 12.301 9.00071 12.375C9.00071 12.449 8.98614 12.5222 8.95784 12.5905C8.92953 12.6589 8.88805 12.721 8.83575 12.7733C8.78345 12.8255 8.72136 12.867 8.65303 12.8953C8.5847 12.9236 8.51146 12.9382 8.4375 12.9382C8.36354 12.9382 8.2903 12.9236 8.22197 12.8953C8.15364 12.867 8.09155 12.8255 8.03925 12.7733L4.66425 9.39825C4.61187 9.346 4.57031 9.28393 4.54195 9.21559C4.51359 9.14725 4.49899 9.07399 4.49899 9C4.49899 8.92601 4.51359 8.85275 4.54195 8.78441C4.57031 8.71607 4.61187 8.654 4.66425 8.60175L8.03925 5.22675C8.14487 5.12113 8.28813 5.06179 8.4375 5.06179C8.58687 5.06179 8.73013 5.12113 8.83575 5.22675C8.94137 5.33237 9.00071 5.47563 9.00071 5.625C9.00071 5.77437 8.94137 5.91763 8.83575 6.02325L6.42037 8.4375H12.9375Z" fill="white"/>
</svg>
